<mxfile host="app.diagrams.net" modified="2022-10-17T00:10:08.508Z" agent="5.0 (Windows NT 10.0; Win64; x64) AppleWebKit/537.36 (KHTML, like Gecko) Chrome/106.0.0.0 Safari/537.36 Edg/106.0.1370.47" etag="wOo5DYglMdexsmIxNl9s" version="20.4.0" type="github">
  <diagram id="Xf2E1u1W4AktfVjYD2Iz" name="Page-1">
    <mxGraphModel dx="1421" dy="789" grid="1" gridSize="10" guides="1" tooltips="1" connect="1" arrows="1" fold="1" page="1" pageScale="1" pageWidth="2336" pageHeight="1654" math="0" shadow="0">
      <root>
        <mxCell id="0" />
        <mxCell id="1" parent="0" />
        <mxCell id="VALeCxbUtCVBy0HvRlEQ-1" value="Mechanic Shop Admin" style="swimlane;whiteSpace=wrap;movable=0;" parent="1" vertex="1">
          <mxGeometry x="164.5" y="128" width="380" height="712" as="geometry" />
        </mxCell>
        <mxCell id="VALeCxbUtCVBy0HvRlEQ-2" value="" style="ellipse;shape=startState;fillColor=#000000;strokeColor=#ff0000;" parent="VALeCxbUtCVBy0HvRlEQ-1" vertex="1">
          <mxGeometry x="174.5" y="32" width="30" height="30" as="geometry" />
        </mxCell>
        <mxCell id="VALeCxbUtCVBy0HvRlEQ-3" value="" style="edgeStyle=elbowEdgeStyle;elbow=horizontal;verticalAlign=bottom;endArrow=open;endSize=8;strokeColor=#000000;endFill=1;rounded=0;entryX=0.5;entryY=0;entryDx=0;entryDy=0;" parent="VALeCxbUtCVBy0HvRlEQ-1" source="VALeCxbUtCVBy0HvRlEQ-2" target="S1LedOKrpOqbfRYcgMUx-1" edge="1">
          <mxGeometry x="161.5" y="40" as="geometry">
            <mxPoint x="189.5" y="102.00000000000011" as="targetPoint" />
          </mxGeometry>
        </mxCell>
        <mxCell id="VALeCxbUtCVBy0HvRlEQ-25" value="Click the Subit Button" style="rounded=1;whiteSpace=wrap;html=1;" parent="VALeCxbUtCVBy0HvRlEQ-1" vertex="1">
          <mxGeometry x="125" y="322" width="130" height="50" as="geometry" />
        </mxCell>
        <mxCell id="S1LedOKrpOqbfRYcgMUx-1" value="Clicks add button" style="rounded=1;whiteSpace=wrap;html=1;" parent="VALeCxbUtCVBy0HvRlEQ-1" vertex="1">
          <mxGeometry x="129.5" y="82" width="120" height="60" as="geometry" />
        </mxCell>
        <mxCell id="S1LedOKrpOqbfRYcgMUx-5" value="" style="edgeStyle=orthogonalEdgeStyle;rounded=0;orthogonalLoop=1;jettySize=auto;html=1;entryX=0.503;entryY=0.098;entryDx=0;entryDy=0;entryPerimeter=0;" parent="VALeCxbUtCVBy0HvRlEQ-1" source="S1LedOKrpOqbfRYcgMUx-4" target="VALeCxbUtCVBy0HvRlEQ-25" edge="1">
          <mxGeometry relative="1" as="geometry" />
        </mxCell>
        <mxCell id="S1LedOKrpOqbfRYcgMUx-4" value="Fills out information" style="rounded=1;whiteSpace=wrap;html=1;" parent="VALeCxbUtCVBy0HvRlEQ-1" vertex="1">
          <mxGeometry x="129.5" y="222" width="120" height="60" as="geometry" />
        </mxCell>
        <mxCell id="_2HYPKGaZrh7aNVJrZD4-1" value="An entity can be multiple things:&lt;br&gt;- A shop employee / admin&lt;br&gt;- An inventory item&lt;br&gt;- A provided service&lt;br&gt;&lt;br&gt;Regardless of the type, the logic is the exact same" style="shape=note;size=20;whiteSpace=wrap;html=1;" parent="VALeCxbUtCVBy0HvRlEQ-1" vertex="1">
          <mxGeometry x="43.5" y="432" width="306.5" height="168" as="geometry" />
        </mxCell>
        <mxCell id="VALeCxbUtCVBy0HvRlEQ-14" value="System" style="swimlane;whiteSpace=wrap;movable=0;" parent="1" vertex="1">
          <mxGeometry x="544.5" y="128" width="345.5" height="712" as="geometry" />
        </mxCell>
        <mxCell id="VALeCxbUtCVBy0HvRlEQ-37" value="" style="edgeStyle=orthogonalEdgeStyle;rounded=0;orthogonalLoop=1;jettySize=auto;html=1;entryX=0.5;entryY=0;entryDx=0;entryDy=0;" parent="VALeCxbUtCVBy0HvRlEQ-14" source="VALeCxbUtCVBy0HvRlEQ-29" target="S1LedOKrpOqbfRYcgMUx-7" edge="1">
          <mxGeometry relative="1" as="geometry">
            <mxPoint x="177.75" y="357" as="targetPoint" />
          </mxGeometry>
        </mxCell>
        <mxCell id="VALeCxbUtCVBy0HvRlEQ-38" value="Yes" style="edgeLabel;html=1;align=center;verticalAlign=middle;resizable=0;points=[];" parent="VALeCxbUtCVBy0HvRlEQ-37" vertex="1" connectable="0">
          <mxGeometry x="0.232" y="-1" relative="1" as="geometry">
            <mxPoint x="1" y="-23" as="offset" />
          </mxGeometry>
        </mxCell>
        <mxCell id="VALeCxbUtCVBy0HvRlEQ-29" value="All inputs are correct?" style="rhombus;whiteSpace=wrap;html=1;fontSize=12;strokeColor=default;fillColor=default;" parent="VALeCxbUtCVBy0HvRlEQ-14" vertex="1">
          <mxGeometry x="122.75" y="222" width="110" height="90" as="geometry" />
        </mxCell>
        <mxCell id="VALeCxbUtCVBy0HvRlEQ-49" value="" style="edgeStyle=orthogonalEdgeStyle;rounded=0;orthogonalLoop=1;jettySize=auto;html=1;exitX=0.5;exitY=1;exitDx=0;exitDy=0;" parent="VALeCxbUtCVBy0HvRlEQ-14" source="S1LedOKrpOqbfRYcgMUx-7" target="VALeCxbUtCVBy0HvRlEQ-47" edge="1">
          <mxGeometry relative="1" as="geometry">
            <mxPoint x="177.75" y="417" as="sourcePoint" />
          </mxGeometry>
        </mxCell>
        <mxCell id="VALeCxbUtCVBy0HvRlEQ-47" value="Displays&lt;br&gt;Success screen" style="rounded=1;whiteSpace=wrap;html=1;" parent="VALeCxbUtCVBy0HvRlEQ-14" vertex="1">
          <mxGeometry x="112.74" y="502" width="130" height="50" as="geometry" />
        </mxCell>
        <mxCell id="S1LedOKrpOqbfRYcgMUx-2" value="Displays form" style="rounded=1;whiteSpace=wrap;html=1;" parent="VALeCxbUtCVBy0HvRlEQ-14" vertex="1">
          <mxGeometry x="117.75" y="82" width="120" height="60" as="geometry" />
        </mxCell>
        <mxCell id="VALeCxbUtCVBy0HvRlEQ-32" style="edgeStyle=orthogonalEdgeStyle;rounded=0;orthogonalLoop=1;jettySize=auto;html=1;exitX=1;exitY=0.5;exitDx=0;exitDy=0;entryX=1;entryY=0.5;entryDx=0;entryDy=0;" parent="VALeCxbUtCVBy0HvRlEQ-14" source="VALeCxbUtCVBy0HvRlEQ-29" target="S1LedOKrpOqbfRYcgMUx-2" edge="1">
          <mxGeometry relative="1" as="geometry">
            <Array as="points">
              <mxPoint x="276" y="267" />
              <mxPoint x="276" y="112" />
            </Array>
            <mxPoint x="255.5" y="62" as="targetPoint" />
          </mxGeometry>
        </mxCell>
        <mxCell id="VALeCxbUtCVBy0HvRlEQ-33" value="No" style="edgeLabel;html=1;align=center;verticalAlign=middle;resizable=0;points=[];" parent="VALeCxbUtCVBy0HvRlEQ-32" vertex="1" connectable="0">
          <mxGeometry x="-0.0466" y="2" relative="1" as="geometry">
            <mxPoint as="offset" />
          </mxGeometry>
        </mxCell>
        <mxCell id="S1LedOKrpOqbfRYcgMUx-7" value="Creates entity" style="rounded=1;whiteSpace=wrap;html=1;" parent="VALeCxbUtCVBy0HvRlEQ-14" vertex="1">
          <mxGeometry x="117.74" y="382" width="120" height="60" as="geometry" />
        </mxCell>
        <mxCell id="VALeCxbUtCVBy0HvRlEQ-50" style="edgeStyle=orthogonalEdgeStyle;rounded=0;orthogonalLoop=1;jettySize=auto;html=1;entryX=0.5;entryY=0;entryDx=0;entryDy=0;" parent="VALeCxbUtCVBy0HvRlEQ-14" source="VALeCxbUtCVBy0HvRlEQ-47" target="VALeCxbUtCVBy0HvRlEQ-44" edge="1">
          <mxGeometry relative="1" as="geometry">
            <mxPoint x="-145.53999999999996" y="541.9999999999998" as="targetPoint" />
          </mxGeometry>
        </mxCell>
        <mxCell id="VALeCxbUtCVBy0HvRlEQ-43" value="" style="group" parent="VALeCxbUtCVBy0HvRlEQ-14" vertex="1" connectable="0">
          <mxGeometry x="156.02999999999994" y="607" width="43.43000000000001" height="43.43000000000001" as="geometry" />
        </mxCell>
        <mxCell id="VALeCxbUtCVBy0HvRlEQ-44" value="" style="ellipse;whiteSpace=wrap;html=1;aspect=fixed;fillColor=none;strokeColor=#CC0000;" parent="VALeCxbUtCVBy0HvRlEQ-43" vertex="1">
          <mxGeometry width="43.43" height="43.43" as="geometry" />
        </mxCell>
        <mxCell id="VALeCxbUtCVBy0HvRlEQ-45" value="" style="ellipse;whiteSpace=wrap;html=1;aspect=fixed;fillColor=#000000;strokeColor=#CC0000;" parent="VALeCxbUtCVBy0HvRlEQ-43" vertex="1">
          <mxGeometry x="6.720000000000027" y="6.710000000000008" width="30" height="30" as="geometry" />
        </mxCell>
        <mxCell id="VALeCxbUtCVBy0HvRlEQ-35" style="edgeStyle=orthogonalEdgeStyle;rounded=0;orthogonalLoop=1;jettySize=auto;html=1;entryX=0;entryY=0.5;entryDx=0;entryDy=0;" parent="1" source="VALeCxbUtCVBy0HvRlEQ-25" target="VALeCxbUtCVBy0HvRlEQ-29" edge="1">
          <mxGeometry relative="1" as="geometry">
            <mxPoint x="612.272727272727" y="390" as="targetPoint" />
            <Array as="points">
              <mxPoint x="590" y="475" />
              <mxPoint x="590" y="395" />
            </Array>
          </mxGeometry>
        </mxCell>
        <mxCell id="S1LedOKrpOqbfRYcgMUx-3" style="edgeStyle=orthogonalEdgeStyle;rounded=0;orthogonalLoop=1;jettySize=auto;html=1;exitX=1;exitY=0.5;exitDx=0;exitDy=0;entryX=0;entryY=0.5;entryDx=0;entryDy=0;" parent="1" source="S1LedOKrpOqbfRYcgMUx-1" target="S1LedOKrpOqbfRYcgMUx-2" edge="1">
          <mxGeometry relative="1" as="geometry" />
        </mxCell>
        <mxCell id="S1LedOKrpOqbfRYcgMUx-6" style="edgeStyle=orthogonalEdgeStyle;rounded=0;orthogonalLoop=1;jettySize=auto;html=1;exitX=0.5;exitY=1;exitDx=0;exitDy=0;" parent="1" source="S1LedOKrpOqbfRYcgMUx-2" target="S1LedOKrpOqbfRYcgMUx-4" edge="1">
          <mxGeometry relative="1" as="geometry">
            <Array as="points">
              <mxPoint x="722" y="310" />
              <mxPoint x="354" y="310" />
            </Array>
          </mxGeometry>
        </mxCell>
      </root>
    </mxGraphModel>
  </diagram>
</mxfile>
